<svg version="1.1" id="Layer_1" xmlns="http://www.w3.org/2000/svg" xmlns:xlink="http://www.w3.org/1999/xlink" x="0px" y="0px"
	 width="100%" viewBox="0 0 960 1280" enable-background="new 0 0 960 1280" xml:space="preserve">
<path fill="#000000" opacity="1.000000" stroke="none" 
	d="
M615.000000,1281.000000 
	C410.000000,1281.000000 205.500000,1281.000000 1.000000,1281.000000 
	C1.000000,854.333313 1.000000,427.666656 1.000000,1.000000 
	C321.000000,1.000000 641.000000,1.000000 961.000000,1.000000 
	C961.000000,427.666656 961.000000,854.333313 961.000000,1281.000000 
	C845.833313,1281.000000 730.666687,1281.000000 615.000000,1281.000000 
M726.653564,999.846191 
	C734.055054,1007.054077 741.261963,1014.475647 748.897095,1021.426941 
	C766.611633,1037.554810 787.961670,1043.268799 811.248291,1040.784058 
	C834.632202,1038.288940 853.538635,1026.919556 866.840698,1007.430786 
	C879.685547,988.612305 884.844360,967.946350 880.154541,945.073608 
	C876.773804,928.585571 868.439026,915.053589 856.854370,903.447083 
	C779.157715,825.603149 701.281433,747.938477 623.614014,670.065430 
	C613.938599,660.364380 605.148743,649.780090 597.310913,641.111755 
	C607.218140,630.549255 618.311584,618.090210 630.067688,606.291382 
	C705.328064,530.757507 780.769958,455.404449 856.070190,379.910187 
	C878.526184,357.396301 886.776672,330.305542 878.458252,299.566528 
	C868.588745,263.095947 832.206055,236.765900 792.403015,241.875183 
	C773.841309,244.257843 757.963623,251.622696 744.835693,264.715210 
	C691.386475,318.020599 638.051880,371.440948 584.681152,424.825043 
	C550.304199,459.210510 515.937866,493.606659 481.409912,528.155029 
	C479.407593,526.073303 477.591583,524.119507 475.706390,522.234924 
	C437.404663,483.946198 399.101379,445.659027 360.785278,407.384674 
	C313.635223,360.285980 266.523407,313.148895 219.292130,266.131775 
	C199.761108,246.689316 176.514679,238.395798 148.853333,242.846497 
	C118.267960,247.767685 97.383293,264.368958 86.610268,293.341736 
	C75.899879,322.146088 79.530441,348.915619 99.933281,372.380035 
	C109.532333,383.419464 120.110405,393.624634 130.467957,403.984772 
	C200.569412,474.103668 270.751831,544.141602 340.846130,614.267639 
	C349.884247,623.309875 358.565765,632.708435 367.698639,642.240601 
	C296.989502,712.843018 225.736511,783.925537 154.568069,855.092590 
	C136.196671,873.463562 117.360832,891.448364 100.076370,910.805298 
	C84.099655,928.697693 78.910988,950.825928 82.292351,974.500183 
	C84.482590,989.834778 91.307602,1003.310181 101.882057,1014.765747 
	C121.487099,1036.004395 145.723572,1044.991699 174.240982,1040.736938 
	C192.038864,1038.081543 207.168884,1029.415405 219.907578,1016.602112 
	C239.881409,996.511414 259.966461,976.531311 279.988129,956.488220 
	C340.638214,895.773193 401.265717,835.035645 461.947601,774.352478 
	C468.390778,767.909241 475.135559,761.767578 482.446320,754.814636 
	C563.395630,836.034363 644.777039,917.687683 726.653564,999.846191 
z"/>
<path fill="#FFFFFF" opacity="1.000000" stroke="none" 
	d="
M726.406006,999.593628 
	C644.777039,917.687683 563.395630,836.034363 482.446320,754.814636 
	C475.135559,761.767578 468.390778,767.909241 461.947601,774.352478 
	C401.265717,835.035645 340.638214,895.773193 279.988129,956.488220 
	C259.966461,976.531311 239.881409,996.511414 219.907578,1016.602112 
	C207.168884,1029.415405 192.038864,1038.081543 174.240982,1040.736938 
	C145.723572,1044.991699 121.487099,1036.004395 101.882057,1014.765747 
	C91.307602,1003.310181 84.482590,989.834778 82.292351,974.500183 
	C78.910988,950.825928 84.099655,928.697693 100.076370,910.805298 
	C117.360832,891.448364 136.196671,873.463562 154.568069,855.092590 
	C225.736511,783.925537 296.989502,712.843018 367.698639,642.240601 
	C358.565765,632.708435 349.884247,623.309875 340.846130,614.267639 
	C270.751831,544.141602 200.569412,474.103668 130.467957,403.984772 
	C120.110405,393.624634 109.532333,383.419464 99.933281,372.380035 
	C79.530441,348.915619 75.899879,322.146088 86.610268,293.341736 
	C97.383293,264.368958 118.267960,247.767685 148.853333,242.846497 
	C176.514679,238.395798 199.761108,246.689316 219.292130,266.131775 
	C266.523407,313.148895 313.635223,360.285980 360.785278,407.384674 
	C399.101379,445.659027 437.404663,483.946198 475.706390,522.234924 
	C477.591583,524.119507 479.407593,526.073303 481.409912,528.155029 
	C515.937866,493.606659 550.304199,459.210510 584.681152,424.825043 
	C638.051880,371.440948 691.386475,318.020599 744.835693,264.715210 
	C757.963623,251.622696 773.841309,244.257843 792.403015,241.875183 
	C832.206055,236.765900 868.588745,263.095947 878.458252,299.566528 
	C886.776672,330.305542 878.526184,357.396301 856.070190,379.910187 
	C780.769958,455.404449 705.328064,530.757507 630.067688,606.291382 
	C618.311584,618.090210 607.218140,630.549255 597.310913,641.111755 
	C605.148743,649.780090 613.938599,660.364380 623.614014,670.065430 
	C701.281433,747.938477 779.157715,825.603149 856.854370,903.447083 
	C868.439026,915.053589 876.773804,928.585571 880.154541,945.073608 
	C884.844360,967.946350 879.685547,988.612305 866.840698,1007.430786 
	C853.538635,1026.919556 834.632202,1038.288940 811.248291,1040.784058 
	C787.961670,1043.268799 766.611633,1037.554810 748.897095,1021.426941 
	C741.261963,1014.475647 734.055054,1007.054077 726.406006,999.593628 
z"/>
</svg>