<?xml version="1.0" encoding="UTF-8"?>
<svg version="1.1" viewBox="0 0 953 1280" width="1280" height="1280" xmlns="http://www.w3.org/2000/svg">
<path transform="translate(0)" d="m0 0h953v1280h-953z" fill="#152433"/>
<path transform="translate(152,241)" d="m0 0h18l14 3 12 5 10 6 13 11 38 38 7 8 146 146 7 8 60 60 4-2 31-31 7-8 88-88 2-3h2v-2h2l2-4 130-130 14-9 12-5 13-3h24l13 3 16 8 11 8 9 9 9 14 6 14 3 16v18l-3 14-7 16-8 11-9 10-55 55-7 8-113 113-5 6h-2l-2 4-45 45-7 8-15 16-2 2 1 4 13 14 7 8 16 17 68 68 7 8 127 127 7 8 5 4v2h2l7 8 8 10 8 16 4 15 1 8v9l-3 17-7 17-8 12-9 10-10 8-16 8-18 4h-18l-15-3-12-5-12-7-13-12-90-90-7-8-142-142-7-8-9-9-4 2-9 9-8 7-20 20-5 4-7 8-142 142-5 6-5 4-7 8-55 55-13 9-13 6-16 4h-22l-16-4-16-8-10-8-10-10-8-13-5-12-3-13-1-17 2-14 4-12 7-13 7-9 14-15 90-90 7-8 120-120 7-8 25-25-6-8-23-23-7-8-122-122-7-8-86-86-7-8-7-7-9-13-6-13-3-13v-20l4-17 7-16 8-12 11-11 14-8 13-5z" fill="#FDFDFD"/>
</svg>
