<svg version="1.1" id="Layer_1" xmlns="http://www.w3.org/2000/svg" xmlns:xlink="http://www.w3.org/1999/xlink" x="0px" y="0px"
	 width="100%" viewBox="0 0 1122 1280" enable-background="new 0 0 1122 1280" xml:space="preserve">
<path fill="#141F31" opacity="1.000000" stroke="none" 
	d="
M1123.000000,255.000000 
	C1123.000000,377.022614 1123.000000,499.045258 1122.725464,621.715332 
	C1121.932251,622.192993 1121.024902,622.124207 1120.950684,621.838928 
	C1117.688477,609.289978 1111.873413,598.100403 1102.330566,589.271423 
	C1086.677368,574.789307 1067.372314,567.469727 1046.868286,563.856384 
	C1034.500244,561.676880 1021.704956,561.192810 1009.101135,561.187317 
	C700.230164,561.053101 391.359100,561.098999 82.488052,561.038696 
	C70.267212,561.036316 58.794159,564.342468 48.149418,569.476807 
	C24.260288,580.999573 8.966064,599.921875 3.007318,626.052124 
	C2.833497,626.814392 1.690893,627.355652 0.999998,628.000000 
	C1.000000,506.644012 1.000000,385.288055 1.335515,263.519806 
	C3.304503,265.072784 4.937976,267.038025 6.806821,269.163818 
	C7.075255,269.690033 7.108318,270.055695 7.107937,270.867493 
	C7.086997,273.471466 6.258260,276.152222 10.107519,276.126770 
	C10.227682,276.253571 10.146088,276.593262 10.135479,276.985321 
	C12.402958,285.389801 17.262789,291.053009 25.417942,293.952454 
	C25.956406,294.142883 26.105116,294.400818 26.100277,295.118958 
	C26.467026,296.213409 26.636797,297.233124 27.223024,297.617279 
	C32.310921,300.951324 37.287148,304.528107 42.660667,307.335968 
	C49.559132,310.940735 56.544292,314.769928 63.952629,316.903168 
	C72.005302,319.221954 80.569542,319.848206 88.955032,320.836578 
	C90.211143,320.984650 91.709061,319.081146 93.478119,318.067566 
	C94.622154,318.122192 95.383186,318.235962 96.106560,318.744019 
	C96.086021,321.213257 96.445091,322.770386 99.423294,321.030884 
	C307.637604,321.007660 515.395691,320.999695 723.153748,321.006134 
	C829.114990,321.009399 935.076233,321.038513 1041.333496,321.331909 
	C1044.405762,321.725739 1047.483887,322.652405 1049.882690,321.757904 
	C1052.920166,320.625305 1057.665405,323.206360 1059.330811,318.021301 
	C1060.111816,318.021729 1060.557861,318.030762 1061.066772,318.372559 
	C1064.322510,319.543793 1067.476074,320.264313 1069.376221,316.056152 
	C1075.406616,313.526337 1081.163940,311.230499 1086.638916,308.390442 
	C1088.207153,307.576904 1088.958618,305.188812 1090.167725,303.375305 
	C1090.250854,303.227905 1090.567993,303.109528 1090.908203,303.311066 
	C1091.796753,302.837128 1092.345093,302.161652 1092.966797,301.305542 
	C1093.255859,300.948212 1093.500977,300.884399 1094.157715,300.959229 
	C1097.812866,300.309052 1100.823242,299.395111 1100.161743,294.707336 
	C1110.832275,283.859039 1117.038086,270.957825 1120.969849,256.785858 
	C1121.171509,256.058807 1122.302002,255.589371 1123.000000,255.000000 
z"/>
<path fill="#141F31" opacity="1.000000" stroke="none" 
	d="
M1.000009,1026.000000 
	C1.000000,901.310730 1.000000,776.621399 1.354208,651.184631 
	C3.984187,656.905884 5.834438,663.565552 8.631274,669.800598 
	C13.320551,680.254456 21.175180,688.289124 30.047150,695.742981 
	C33.146725,700.884888 36.738953,704.785217 43.396027,703.934937 
	C43.599998,703.947266 43.992535,704.060974 44.003380,704.379517 
	C45.075977,705.101868 46.137733,705.505737 47.404976,705.917297 
	C47.610470,705.924988 48.004795,706.041870 48.073387,706.389954 
	C48.874752,707.363281 49.507309,708.259338 50.355339,708.573059 
	C63.208900,713.328796 76.267166,717.598328 89.953110,718.841309 
	C98.601578,719.626770 107.380409,718.902527 116.099037,719.004089 
	C140.884018,719.292725 165.667496,719.843811 190.452759,719.922668 
	C205.238937,719.969666 220.028214,719.015747 234.814514,719.058716 
	C257.849213,719.125671 280.881897,719.844604 303.916687,719.922485 
	C317.703033,719.969116 331.492310,719.010254 345.279358,719.032837 
	C504.690674,719.294250 664.101807,719.681824 823.513123,719.945557 
	C836.382141,719.966858 849.252014,719.065857 862.121704,719.060608 
	C874.492493,719.055603 886.861816,719.790466 899.234985,719.955566 
	C911.811951,720.123413 924.394592,720.116943 936.971619,719.950623 
	C945.930298,719.832153 954.885742,718.995422 963.839172,719.050720 
	C988.374207,719.202087 1012.910095,719.998413 1037.439819,719.801819 
	C1045.964966,719.733459 1054.748901,719.595032 1063.012451,716.382568 
	C1069.919312,713.697571 1077.154785,711.746277 1083.818604,708.574463 
	C1094.278076,703.596069 1101.818237,694.787781 1109.256958,686.313416 
	C1112.966431,682.087524 1114.206299,675.787659 1117.376587,670.960083 
	C1119.313354,668.010803 1117.494141,662.616394 1123.000000,662.000000 
	C1123.000000,781.355957 1123.000000,900.711914 1122.686035,1020.655029 
	C1121.865601,1020.730591 1121.170654,1020.307922 1120.881104,1019.693970 
	C1117.053711,1011.580566 1114.395264,1002.648376 1109.278564,995.463196 
	C1096.716553,977.822510 1078.060547,968.645386 1057.615112,963.935669 
	C1044.772949,960.977478 1031.314331,959.477905 1018.125183,959.433411 
	C889.837830,959.000732 761.548889,958.920776 633.260437,958.923157 
	C466.318665,958.926208 299.376648,958.987305 132.435349,959.323792 
	C110.379425,959.368225 88.133705,956.288513 66.276329,961.176880 
	C58.343277,962.951111 50.290047,965.568970 43.195282,969.452576 
	C21.524549,981.315063 8.223198,999.774231 2.988168,1023.996094 
	C2.820670,1024.770996 1.684584,1025.336792 1.000009,1026.000000 
z"/>
<path fill="#152032" opacity="1.000000" stroke="none" 
	d="
M1.000001,228.000000 
	C1.000000,152.333313 1.000000,76.666634 1.000000,1.000000 
	C10.763808,1.000000 20.414051,1.000000 30.831566,1.290813 
	C44.837021,1.699500 58.075142,1.828992 71.313576,1.895035 
	C71.874222,1.897832 72.437790,1.311749 73.000000,1.000000 
	C76.693024,1.000000 80.386055,1.000000 84.839172,1.290457 
	C98.170197,1.698258 110.741074,1.827815 123.312279,1.892741 
	C123.873306,1.895639 124.437355,1.310981 125.000000,1.000000 
	C457.547974,1.000000 790.095947,1.000000 1123.000000,1.000000 
	C1123.000000,75.021049 1123.000000,149.042679 1122.673828,223.829651 
	C1121.849731,223.782776 1121.151733,223.031357 1120.883667,222.149292 
	C1116.313843,207.109726 1108.494873,194.321945 1095.373291,185.204651 
	C1083.312500,176.824387 1070.598511,170.021469 1055.668335,168.286911 
	C1043.159302,166.833618 1030.680176,163.749939 1018.185974,163.739685 
	C709.572083,163.486649 400.957855,163.597961 92.343857,163.398636 
	C77.345688,163.388947 63.025433,165.089371 49.316792,171.117401 
	C36.169258,176.898712 24.723360,185.341888 17.016733,197.325958 
	C11.176193,206.408173 7.674284,216.990494 3.042098,226.863251 
	C2.773580,227.435562 1.699299,227.629822 1.000001,228.000000 
z"/>
<path fill="#141F31" opacity="1.000000" stroke="none" 
	d="
M1.000000,1230.000000 
	C1.000000,1172.644653 1.000000,1115.289307 1.408380,1057.353149 
	C2.229445,1057.149292 2.851875,1057.449097 3.022773,1057.914795 
	C4.994651,1063.288452 6.326430,1068.981323 8.922189,1074.026489 
	C18.407669,1092.462891 34.200542,1103.660645 53.037010,1111.528076 
	C57.287685,1113.640503 61.401684,1115.812500 65.783760,1116.968262 
	C69.368256,1117.913818 73.272377,1117.647583 77.369110,1117.893433 
	C78.139809,1117.950684 78.576202,1118.033081 79.088524,1118.480713 
	C80.411446,1119.548096 81.604279,1120.716309 82.915176,1120.868774 
	C87.684578,1121.423218 92.493454,1121.937012 97.287537,1121.937744 
	C411.607300,1121.987427 725.927063,1121.979004 1040.246826,1122.019775 
	C1049.528564,1122.020996 1058.889893,1122.443726 1067.592407,1118.742432 
	C1070.509888,1117.501709 1075.469849,1118.450562 1075.914062,1113.143921 
	C1076.030640,1113.133423 1076.214844,1113.277588 1076.626221,1113.504517 
	C1078.634277,1113.512695 1080.561890,1113.792603 1081.771240,1112.989990 
	C1087.323120,1109.305542 1092.778931,1105.452271 1098.020508,1101.342407 
	C1099.271240,1100.361816 1099.566528,1098.162720 1100.354248,1096.469482 
	C1100.407227,1096.414795 1100.506714,1096.299683 1100.876709,1096.479370 
	C1106.281494,1095.854370 1107.914062,1092.473755 1107.922607,1087.900146 
	C1107.932861,1087.944824 1107.841309,1087.942383 1108.096680,1087.829102 
	C1108.545654,1087.404419 1108.739014,1087.093018 1108.965942,1086.437012 
	C1112.969482,1077.114990 1116.913818,1068.126099 1120.950928,1059.178955 
	C1121.338745,1058.319458 1122.303223,1057.720093 1123.000000,1057.000000 
	C1123.000000,1131.642944 1123.000000,1206.285889 1123.000000,1280.963745 
	C749.000000,1280.963745 375.000000,1280.963745 1.000000,1280.963745 
	C1.000000,1273.929688 1.000000,1266.931885 1.075704,1259.064819 
	C1.100938,1248.796997 1.050469,1239.398560 1.000000,1230.000000 
z"/>
<path fill="#FEFEFE" opacity="1.000000" stroke="none" 
	d="
M79.012604,1118.115479 
	C78.576202,1118.033081 78.139809,1117.950684 77.101120,1117.607788 
	C68.671288,1115.280884 60.843758,1113.214600 53.016239,1111.148193 
	C34.200542,1103.660645 18.407669,1092.462891 8.922189,1074.026489 
	C6.326430,1068.981323 4.994651,1063.288452 3.022773,1057.914795 
	C2.851875,1057.449097 2.229445,1057.149292 1.408380,1056.886230 
	C1.000000,1046.979126 1.000000,1036.958130 1.000009,1026.468628 
	C1.684584,1025.336792 2.820670,1024.770996 2.988168,1023.996094 
	C8.223198,999.774231 21.524549,981.315063 43.195282,969.452576 
	C50.290047,965.568970 58.343277,962.951111 66.276329,961.176880 
	C88.133705,956.288513 110.379425,959.368225 132.435349,959.323792 
	C299.376648,958.987305 466.318665,958.926208 633.260437,958.923157 
	C761.548889,958.920776 889.837830,959.000732 1018.125183,959.433411 
	C1031.314331,959.477905 1044.772949,960.977478 1057.615112,963.935669 
	C1078.060547,968.645386 1096.716553,977.822510 1109.278564,995.463196 
	C1114.395264,1002.648376 1117.053711,1011.580566 1120.881104,1019.693970 
	C1121.170654,1020.307922 1121.865601,1020.730591 1122.686035,1021.121094 
	C1123.000000,1032.687622 1123.000000,1044.375122 1123.000000,1056.531372 
	C1122.303223,1057.720093 1121.338745,1058.319458 1120.950928,1059.178955 
	C1116.913818,1068.126099 1112.969482,1077.114990 1108.704346,1086.543213 
	C1108.220093,1087.310303 1108.030640,1087.626343 1107.841309,1087.942383 
	C1107.841309,1087.942383 1107.932861,1087.944824 1107.621704,1088.057129 
	C1105.042603,1090.879517 1102.774658,1093.589600 1100.506714,1096.299683 
	C1100.506714,1096.299683 1100.407227,1096.414795 1100.104248,1096.666504 
	C1091.939209,1102.371338 1084.077026,1107.824463 1076.214844,1113.277588 
	C1076.214844,1113.277588 1076.030640,1113.133423 1075.528687,1113.239624 
	C1064.612427,1117.785400 1053.891235,1120.089233 1042.423462,1120.084106 
	C778.689453,1119.964722 514.955200,1120.175415 251.221649,1119.848511 
	C193.822174,1119.777344 136.377533,1122.228394 79.012604,1118.115479 
z"/>
<path fill="#FEFEFE" opacity="1.000000" stroke="none" 
	d="
M1.000001,228.468658 
	C1.699299,227.629822 2.773580,227.435562 3.042098,226.863251 
	C7.674284,216.990494 11.176193,206.408173 17.016733,197.325958 
	C24.723360,185.341888 36.169258,176.898712 49.316792,171.117401 
	C63.025433,165.089371 77.345688,163.388947 92.343857,163.398636 
	C400.957855,163.597961 709.572083,163.486649 1018.185974,163.739685 
	C1030.680176,163.749939 1043.159302,166.833618 1055.668335,168.286911 
	C1070.598511,170.021469 1083.312500,176.824387 1095.373291,185.204651 
	C1108.494873,194.321945 1116.313843,207.109726 1120.883667,222.149292 
	C1121.151733,223.031357 1121.849731,223.782776 1122.673828,224.297485 
	C1123.000000,234.020889 1123.000000,244.041794 1123.000000,254.531342 
	C1122.302002,255.589371 1121.171509,256.058807 1120.969849,256.785858 
	C1117.038086,270.957825 1110.832275,283.859039 1099.837646,294.789612 
	C1097.479126,297.078369 1095.627197,299.005920 1093.775391,300.933472 
	C1093.500977,300.884399 1093.255859,300.948212 1092.705933,301.427856 
	C1091.770508,302.190369 1091.169189,302.649963 1090.567993,303.109528 
	C1090.567993,303.109528 1090.250854,303.227905 1089.907349,303.556702 
	C1081.428467,307.820038 1073.293213,311.754578 1064.892944,315.712402 
	C1063.419556,316.156952 1062.211182,316.578186 1060.668213,316.978394 
	C1059.893799,317.020630 1059.453613,317.083923 1058.607422,317.118958 
	C1052.468018,317.760559 1046.734863,318.430420 1040.551514,319.035950 
	C794.355408,318.972076 548.609314,318.984283 302.863251,318.965271 
	C234.890869,318.960022 166.918472,318.861816 98.635216,318.610352 
	C97.597641,318.392853 96.870926,318.371307 96.144218,318.349731 
	C95.383186,318.235962 94.622154,318.122192 93.101593,317.984802 
	C68.216156,316.057556 45.497795,310.136841 26.096390,294.749542 
	C26.105116,294.400818 25.956406,294.142883 25.250008,293.657013 
	C19.948538,287.756592 15.047317,282.174927 10.146091,276.593262 
	C10.146088,276.593262 10.227682,276.253571 10.099228,275.774658 
	C9.027640,273.670929 8.084508,272.046173 7.141377,270.421387 
	C7.108318,270.055695 7.075255,269.690033 6.751922,268.815735 
	C5.338097,265.538025 4.214545,262.768890 3.170732,259.587280 
	C2.500316,258.116516 1.750160,257.058258 1.000002,256.000000 
	C1.000000,246.979111 1.000000,237.958206 1.000001,228.468658 
z"/>
<path fill="#FEFEFE" opacity="1.000000" stroke="none" 
	d="
M43.992535,704.060974 
	C43.992535,704.060974 43.599998,703.947266 43.247890,703.600037 
	C38.592701,700.642700 34.289619,698.032593 29.986540,695.422485 
	C21.175180,688.289124 13.320551,680.254456 8.631274,669.800598 
	C5.834438,663.565552 3.984187,656.905884 1.354208,650.718567 
	C1.000000,643.645752 1.000000,636.291504 0.999998,628.468628 
	C1.690893,627.355652 2.833497,626.814392 3.007318,626.052124 
	C8.966064,599.921875 24.260288,580.999573 48.149418,569.476807 
	C58.794159,564.342468 70.267212,561.036316 82.488052,561.038696 
	C391.359100,561.098999 700.230164,561.053101 1009.101135,561.187317 
	C1021.704956,561.192810 1034.500244,561.676880 1046.868286,563.856384 
	C1067.372314,567.469727 1086.677368,574.789307 1102.330566,589.271423 
	C1111.873413,598.100403 1117.688477,609.289978 1120.950684,621.838928 
	C1121.024902,622.124207 1121.932251,622.192993 1122.725464,622.181396 
	C1123.000000,633.020874 1123.000000,644.041809 1122.676147,655.384277 
	C1122.126099,654.458740 1121.900024,653.211670 1121.478394,650.887085 
	C1113.073975,692.077332 1078.207520,716.343750 1040.794067,716.324463 
	C730.568665,716.164978 420.343079,716.290283 110.117760,716.049255 
	C95.993652,716.038269 81.815414,713.738403 67.773033,711.730713 
	C61.049919,710.769531 54.586060,707.995117 48.004791,706.041870 
	C48.004795,706.041870 47.610470,705.924988 47.267265,705.610535 
	C45.946888,704.884399 44.969711,704.472656 43.992535,704.060974 
z"/>
<path fill="#23272F" opacity="1.000000" stroke="none" 
	d="
M48.073380,706.390015 
	C54.586060,707.995117 61.049919,710.769531 67.773033,711.730713 
	C81.815414,713.738403 95.993652,716.038269 110.117760,716.049255 
	C420.343079,716.290283 730.568665,716.164978 1040.794067,716.324463 
	C1078.207520,716.343750 1113.073975,692.077332 1121.478394,650.887085 
	C1121.900024,653.211670 1122.126099,654.458740 1122.676147,655.852905 
	C1123.000000,657.714355 1123.000000,659.428711 1123.000000,661.571533 
	C1117.494141,662.616394 1119.313354,668.010803 1117.376587,670.960083 
	C1114.206299,675.787659 1112.966431,682.087524 1109.256958,686.313416 
	C1101.818237,694.787781 1094.278076,703.596069 1083.818604,708.574463 
	C1077.154785,711.746277 1069.919312,713.697571 1063.012451,716.382568 
	C1054.748901,719.595032 1045.964966,719.733459 1037.439819,719.801819 
	C1012.910095,719.998413 988.374207,719.202087 963.839172,719.050720 
	C954.885742,718.995422 945.930298,719.832153 936.971619,719.950623 
	C924.394592,720.116943 911.811951,720.123413 899.234985,719.955566 
	C886.861816,719.790466 874.492493,719.055603 862.121704,719.060608 
	C849.252014,719.065857 836.382141,719.966858 823.513123,719.945557 
	C664.101807,719.681824 504.690674,719.294250 345.279358,719.032837 
	C331.492310,719.010254 317.703033,719.969116 303.916687,719.922485 
	C280.881897,719.844604 257.849213,719.125671 234.814514,719.058716 
	C220.028214,719.015747 205.238937,719.969666 190.452759,719.922668 
	C165.667496,719.843811 140.884018,719.292725 116.099037,719.004089 
	C107.380409,718.902527 98.601578,719.626770 89.953110,718.841309 
	C76.267166,717.598328 63.208900,713.328796 50.355339,708.573059 
	C49.507309,708.259338 48.874752,707.363281 48.073380,706.390015 
z"/>
<path fill="#23272F" opacity="1.000000" stroke="none" 
	d="
M72.531342,1.000000 
	C72.437790,1.311749 71.874222,1.897832 71.313576,1.895035 
	C58.075142,1.828992 44.837021,1.699500 31.299419,1.290813 
	C44.687561,1.000000 58.375122,1.000000 72.531342,1.000000 
z"/>
<path fill="#23272F" opacity="1.000000" stroke="none" 
	d="
M124.531342,1.000000 
	C124.437355,1.310981 123.873306,1.895639 123.312279,1.892741 
	C110.741074,1.827815 98.170197,1.698258 85.299629,1.290457 
	C98.020897,1.000000 111.041786,1.000000 124.531342,1.000000 
z"/>
<path fill="#FEFEFE" opacity="1.000000" stroke="none" 
	d="
M1.000000,1230.468628 
	C1.050469,1239.398560 1.100938,1248.796997 1.075704,1258.597778 
	C1.000000,1249.645752 1.000000,1240.291504 1.000000,1230.468628 
z"/>
<path fill="#141F31" opacity="1.000000" stroke="none" 
	d="
M3.090993,259.999756 
	C4.214545,262.768890 5.338097,265.538025 6.516549,268.655212 
	C4.937976,267.038025 3.304503,265.072784 1.335515,263.053772 
	C1.000000,262.250000 1.000000,261.500000 1.348499,260.375000 
	C2.161662,259.999939 2.626328,259.999847 3.090993,259.999756 
z"/>
<path fill="#141F31" opacity="1.000000" stroke="none" 
	d="
M3.170732,259.587280 
	C2.626328,259.999847 2.161662,259.999939 1.348499,260.000000 
	C1.000000,258.933319 1.000000,257.866669 1.000002,256.399994 
	C1.750160,257.058258 2.500316,258.116516 3.170732,259.587280 
z"/>
<path fill="#05080E" opacity="1.000000" stroke="none" 
	d="
M98.946083,318.806274 
	C166.918472,318.861816 234.890869,318.960022 302.863251,318.965271 
	C548.609314,318.984283 794.355408,318.972076 1040.569580,319.361267 
	C1041.037720,320.185913 1041.037598,320.620911 1041.037476,321.055939 
	C935.076233,321.038513 829.114990,321.009399 723.153748,321.006134 
	C515.395691,320.999695 307.637604,321.007660 99.418228,320.656006 
	C98.953308,319.803619 98.949692,319.304962 98.946083,318.806274 
z"/>
<path fill="#141F31" opacity="1.000000" stroke="none" 
	d="
M26.100277,295.118958 
	C45.497795,310.136841 68.216156,316.057556 92.718597,318.043945 
	C91.709061,319.081146 90.211143,320.984650 88.955032,320.836578 
	C80.569542,319.848206 72.005302,319.221954 63.952629,316.903168 
	C56.544292,314.769928 49.559132,310.940735 42.660667,307.335968 
	C37.287148,304.528107 32.310921,300.951324 27.223024,297.617279 
	C26.636797,297.233124 26.467026,296.213409 26.100277,295.118958 
z"/>
<path fill="#141F31" opacity="1.000000" stroke="none" 
	d="
M1041.333496,321.331909 
	C1041.037598,320.620911 1041.037720,320.185913 1041.019775,319.425598 
	C1046.734863,318.430420 1052.468018,317.760559 1058.598389,317.339539 
	C1058.995483,317.588348 1058.995972,318.029877 1058.995972,318.029877 
	C1057.665405,323.206360 1052.920166,320.625305 1049.882690,321.757904 
	C1047.483887,322.652405 1044.405762,321.725739 1041.333496,321.331909 
z"/>
<path fill="#05080E" opacity="1.000000" stroke="none" 
	d="
M1065.157837,315.689117 
	C1073.293213,311.754578 1081.428467,307.820038 1089.824219,303.704102 
	C1088.958618,305.188812 1088.207153,307.576904 1086.638916,308.390442 
	C1081.163940,311.230499 1075.406616,313.526337 1068.735352,316.004333 
	C1066.862061,315.882812 1066.009888,315.785950 1065.157837,315.689117 
z"/>
<path fill="#141F31" opacity="1.000000" stroke="none" 
	d="
M10.135483,276.985321 
	C15.047317,282.174927 19.948538,287.756592 25.017694,293.633728 
	C17.262789,291.053009 12.402958,285.389801 10.135483,276.985321 
z"/>
<path fill="#141F31" opacity="1.000000" stroke="none" 
	d="
M1064.892944,315.712402 
	C1066.009888,315.785950 1066.862061,315.882812 1068.354980,316.031494 
	C1067.476074,320.264313 1064.322510,319.543793 1061.071045,318.111572 
	C1061.009399,317.345001 1061.006104,317.172211 1061.002686,316.999390 
	C1062.211182,316.578186 1063.419556,316.156952 1064.892944,315.712402 
z"/>
<path fill="#05080E" opacity="1.000000" stroke="none" 
	d="
M1094.157715,300.959229 
	C1095.627197,299.005920 1097.479126,297.078369 1099.655029,295.068542 
	C1100.823242,299.395111 1097.812866,300.309052 1094.157715,300.959229 
z"/>
<path fill="#141F31" opacity="1.000000" stroke="none" 
	d="
M7.107934,270.867493 
	C8.084508,272.046173 9.027640,273.670929 9.979065,275.647858 
	C6.258260,276.152222 7.086997,273.471466 7.107934,270.867493 
z"/>
<path fill="#141F31" opacity="1.000000" stroke="none" 
	d="
M98.635216,318.610352 
	C98.949692,319.304962 98.953308,319.803619 98.961990,320.677216 
	C96.445091,322.770386 96.086021,321.213257 96.106560,318.744019 
	C96.870926,318.371307 97.597641,318.392853 98.635216,318.610352 
z"/>
<path fill="#05080E" opacity="1.000000" stroke="none" 
	d="
M1090.908203,303.311066 
	C1091.169189,302.649963 1091.770508,302.190369 1092.632568,301.608459 
	C1092.345093,302.161652 1091.796753,302.837128 1090.908203,303.311066 
z"/>
<path fill="#05080E" opacity="1.000000" stroke="none" 
	d="
M1060.668213,316.978363 
	C1061.006104,317.172211 1061.009399,317.345001 1061.008301,317.778809 
	C1060.557861,318.030762 1060.111816,318.021729 1059.330811,318.021301 
	C1058.995972,318.029877 1058.995483,317.588348 1059.004517,317.367798 
	C1059.453613,317.083923 1059.893799,317.020630 1060.668213,316.978363 
z"/>
<path fill="#23272F" opacity="1.000000" stroke="none" 
	d="
M30.047146,695.742981 
	C34.289619,698.032593 38.592701,700.642700 43.043915,703.587708 
	C36.738953,704.785217 33.146725,700.884888 30.047146,695.742981 
z"/>
<path fill="#23272F" opacity="1.000000" stroke="none" 
	d="
M44.003380,704.379517 
	C44.969711,704.472656 45.946888,704.884399 47.061775,705.602844 
	C46.137733,705.505737 45.075977,705.101868 44.003380,704.379517 
z"/>
<path fill="#0A0C14" opacity="1.000000" stroke="none" 
	d="
M79.088516,1118.480713 
	C136.377533,1122.228394 193.822174,1119.777344 251.221649,1119.848511 
	C514.955200,1120.175415 778.689453,1119.964722 1042.423462,1120.084106 
	C1053.891235,1120.089233 1064.612427,1117.785400 1075.412109,1113.250122 
	C1075.469849,1118.450562 1070.509888,1117.501709 1067.592407,1118.742432 
	C1058.889893,1122.443726 1049.528564,1122.020996 1040.246826,1122.019775 
	C725.927063,1121.979004 411.607300,1121.987427 97.287537,1121.937744 
	C92.493454,1121.937012 87.684578,1121.423218 82.915176,1120.868774 
	C81.604279,1120.716309 80.411446,1119.548096 79.088516,1118.480713 
z"/>
<path fill="#0A0C14" opacity="1.000000" stroke="none" 
	d="
M1076.626221,1113.504639 
	C1084.077026,1107.824463 1091.939209,1102.371338 1100.051270,1096.721191 
	C1099.566528,1098.162720 1099.271240,1100.361816 1098.020508,1101.342407 
	C1092.778931,1105.452271 1087.323120,1109.305542 1081.771240,1112.989990 
	C1080.561890,1113.792603 1078.634277,1113.512695 1076.626221,1113.504639 
z"/>
<path fill="#0A0C14" opacity="1.000000" stroke="none" 
	d="
M53.037003,1111.528076 
	C60.843758,1113.214600 68.671288,1115.280884 76.766815,1117.632935 
	C73.272377,1117.647583 69.368256,1117.913818 65.783760,1116.968262 
	C61.401684,1115.812500 57.287685,1113.640503 53.037003,1111.528076 
z"/>
<path fill="#0A0C14" opacity="1.000000" stroke="none" 
	d="
M1100.876709,1096.479370 
	C1102.774658,1093.589600 1105.042603,1090.879517 1107.611328,1088.012451 
	C1107.914062,1092.473755 1106.281494,1095.854370 1100.876709,1096.479370 
z"/>
<path fill="#0A0C14" opacity="1.000000" stroke="none" 
	d="
M1108.096680,1087.829102 
	C1108.030640,1087.626343 1108.220093,1087.310303 1108.670898,1086.887939 
	C1108.739014,1087.093018 1108.545654,1087.404419 1108.096680,1087.829102 
z"/>
</svg>