<svg version="1.1" id="Layer_1" xmlns="http://www.w3.org/2000/svg" xmlns:xlink="http://www.w3.org/1999/xlink" x="0px" y="0px"
	 width="100%" viewBox="0 0 1122 1280" enable-background="new 0 0 1122 1280" xml:space="preserve">
<path fill="#FFFFFF" opacity="1.000000" stroke="none" 
	d="
M2.000005,1281.000000 
	C1.666676,1279.503052 1.042462,1278.006348 1.041637,1276.509277 
	C0.994865,1191.651978 1.000000,1106.794556 1.349744,1021.713867 
	C2.138197,1020.460938 2.716538,1019.467712 2.995433,1018.396545 
	C12.998194,979.977966 46.962925,957.982483 81.679260,957.985291 
	C392.175049,958.010376 702.670837,958.006592 1013.166626,957.979675 
	C1028.285400,957.978333 1043.257568,959.215454 1057.901001,963.037781 
	C1089.150024,971.194702 1112.937744,987.726318 1121.862915,1021.565308 
	C1121.862915,898.039612 1121.862915,775.296448 1121.862915,651.960388 
	C1121.398315,652.855164 1121.111084,653.210693 1121.020630,653.610779 
	C1111.680542,694.915344 1075.449219,716.437683 1041.933838,716.429260 
	C731.771423,716.351318 421.609009,716.382812 111.446602,716.377930 
	C93.515984,716.377625 75.720345,715.057373 58.558235,709.444641 
	C31.395267,700.561218 10.492866,685.007080 2.668881,655.857361 
	C2.559952,655.451538 1.575724,655.280579 1.000005,655.000000 
	C1.000000,644.312439 1.000000,633.624878 1.013296,622.806702 
	C1.240213,622.748413 1.453835,622.820801 2.006928,623.033203 
	C2.459947,623.051270 2.642766,622.946045 2.677269,622.804688 
	C11.867294,585.151611 43.730465,560.143005 82.589455,560.142395 
	C390.892761,560.137268 699.196167,560.085693 1007.499268,560.304016 
	C1022.359497,560.314575 1037.380737,561.762146 1052.037720,564.246887 
	C1072.035522,567.637146 1090.091187,575.887512 1104.432251,590.928345 
	C1113.297119,600.225769 1118.568726,611.413269 1121.965942,623.952637 
	C1122.375366,624.495056 1122.687744,624.747498 1123.000000,625.000000 
	C1123.000000,769.020935 1123.000000,913.041809 1122.690674,1057.190430 
	C1121.571411,1059.363525 1120.601440,1061.361450 1119.975220,1063.461792 
	C1109.425537,1098.841675 1075.997437,1120.041626 1044.034058,1120.035522 
	C731.920593,1119.976440 419.807190,1119.985107 107.693748,1120.047119 
	C93.228943,1120.049927 78.986877,1118.604126 65.028481,1114.950317 
	C45.944324,1109.954956 28.919439,1101.360474 16.168514,1085.685547 
	C9.384353,1077.345703 4.967408,1067.850952 2.000000,1057.547852 
	C2.000000,1132.031860 2.000000,1206.515991 2.000005,1281.000000 
z"/>
<path fill="#000000" opacity="1.000000" stroke="none" 
	d="
M1.000005,655.468628 
	C1.575724,655.280579 2.559952,655.451538 2.668881,655.857361 
	C10.492866,685.007080 31.395267,700.561218 58.558235,709.444641 
	C75.720345,715.057373 93.515984,716.377625 111.446602,716.377930 
	C421.609009,716.382812 731.771423,716.351318 1041.933838,716.429260 
	C1075.449219,716.437683 1111.680542,694.915344 1121.020630,653.610779 
	C1121.111084,653.210693 1121.398315,652.855164 1121.862915,651.960388 
	C1121.862915,775.296448 1121.862915,898.039612 1121.862915,1021.565308 
	C1112.937744,987.726318 1089.150024,971.194702 1057.901001,963.037781 
	C1043.257568,959.215454 1028.285400,957.978333 1013.166626,957.979675 
	C702.670837,958.006592 392.175049,958.010376 81.679260,957.985291 
	C46.962925,957.982483 12.998194,979.977966 2.995433,1018.396545 
	C2.716538,1019.467712 2.138197,1020.460938 1.349744,1021.245239 
	C1.000000,899.312439 1.000000,777.624878 1.000005,655.468628 
z"/>
<path fill="#000000" opacity="1.000000" stroke="none" 
	d="
M2.468657,1281.000000 
	C2.000000,1206.515991 2.000000,1132.031860 2.000000,1057.547852 
	C4.967408,1067.850952 9.384353,1077.345703 16.168514,1085.685547 
	C28.919439,1101.360474 45.944324,1109.954956 65.028481,1114.950317 
	C78.986877,1118.604126 93.228943,1120.049927 107.693748,1120.047119 
	C419.807190,1119.985107 731.920593,1119.976440 1044.034058,1120.035522 
	C1075.997437,1120.041626 1109.425537,1098.841675 1119.975220,1063.461792 
	C1120.601440,1061.361450 1121.571411,1059.363525 1122.690674,1057.658936 
	C1123.000000,1132.309082 1123.000000,1206.618286 1123.000000,1281.000000 
	C749.645752,1281.000000 376.291534,1281.000000 2.468657,1281.000000 
z"/>
<path fill="#000000" opacity="1.000000" stroke="none" 
	d="
M1123.000000,2.000000 
	C1123.000000,75.354225 1123.000000,148.708450 1122.695312,222.869812 
	C1121.961304,223.227203 1121.277832,222.844406 1121.139160,222.318085 
	C1115.450317,200.714066 1101.413086,186.072159 1082.073608,176.147598 
	C1060.858276,165.260391 1037.795532,162.389694 1014.399658,162.382065 
	C703.001770,162.280609 391.603668,162.180344 80.206169,162.540695 
	C52.150688,162.573166 29.180553,175.275497 13.969031,199.467575 
	C8.770719,207.734848 5.601017,217.277679 2.083045,224.972214 
	C2.083045,151.737366 2.083045,76.932983 2.525644,2.072367 
	C376.312164,2.010761 749.656067,2.005380 1123.000000,2.000000 
z"/>
<path fill="#FEFEFE" opacity="1.000000" stroke="none" 
	d="
M2.083045,2.128592 
	C2.083045,76.932983 2.083045,151.737366 2.083045,224.972214 
	C5.601017,217.277679 8.770719,207.734848 13.969031,199.467575 
	C29.180553,175.275497 52.150688,162.573166 80.206169,162.540695 
	C391.603668,162.180344 703.001770,162.280609 1014.399658,162.382065 
	C1037.795532,162.389694 1060.858276,165.260391 1082.073608,176.147598 
	C1101.413086,186.072159 1115.450317,200.714066 1121.139160,222.318085 
	C1121.277832,222.844406 1121.961304,223.227203 1122.695312,223.338470 
	C1123.000000,232.687561 1123.000000,242.375122 1122.745239,252.668610 
	C1122.298462,253.599762 1122.106445,253.924973 1121.597412,254.431946 
	C1120.849976,256.537292 1120.521240,258.490234 1119.974487,260.380096 
	C1109.168457,297.733612 1077.631470,318.666046 1045.799316,318.714355 
	C732.545166,319.189819 419.289917,319.038940 106.035072,318.896606 
	C89.177986,318.888947 72.451408,316.675964 56.337315,311.074860 
	C30.080910,301.948395 10.242933,286.402466 2.720916,258.279022 
	C2.652599,258.023590 1.940050,257.940460 1.357444,257.740875 
	C1.186612,257.704865 1.000000,258.000000 1.000000,258.000000 
	C1.000000,172.333328 1.000000,86.666664 1.504073,1.283376 
	C2.033112,1.754032 2.058078,1.941312 2.083045,2.128592 
z"/>
<path fill="#BFBFBF" opacity="1.000000" stroke="none" 
	d="
M2.525644,2.072367 
	C2.058078,1.941312 2.033112,1.754032 2.004073,1.283376 
	C375.666656,1.000000 749.333313,1.000000 1123.000000,1.500000 
	C749.656067,2.005380 376.312164,2.010761 2.525644,2.072367 
z"/>
<path fill="#EFEFEF" opacity="1.000000" stroke="none" 
	d="
M1121.914551,254.250214 
	C1122.106445,253.924973 1122.298462,253.599762 1122.745239,253.137268 
	C1123.000000,376.688110 1123.000000,500.376221 1123.000000,624.532166 
	C1122.687744,624.747498 1122.375366,624.495056 1121.962891,623.505615 
	C1121.908691,621.106018 1121.994751,619.443481 1121.994873,617.780884 
	C1122.000977,521.903809 1122.005859,426.026764 1121.996094,330.149689 
	C1121.993530,304.849854 1121.943115,279.550049 1121.914551,254.250214 
z"/>
<path fill="#404040" opacity="1.000000" stroke="none" 
	d="
M1.000000,258.468658 
	C1.000000,258.000000 1.186612,257.704865 1.541081,258.187378 
	C1.930759,259.667908 1.996771,260.665924 1.996809,261.663940 
	C2.001285,380.248566 2.002359,498.833160 1.986857,617.417786 
	C1.986618,619.242920 1.778539,621.067993 1.667456,622.893127 
	C1.453835,622.820801 1.240213,622.748413 1.013296,622.338013 
	C1.000000,500.979095 1.000000,379.958221 1.000000,258.468658 
z"/>
<path fill="#000000" opacity="1.000000" stroke="none" 
	d="
M2.006927,623.033203 
	C1.778539,621.067993 1.986618,619.242920 1.986857,617.417786 
	C2.002359,498.833160 2.001285,380.248566 1.996809,261.663940 
	C1.996771,260.665924 1.930759,259.667908 1.711913,258.223389 
	C1.940050,257.940460 2.652599,258.023590 2.720916,258.279022 
	C10.242933,286.402466 30.080910,301.948395 56.337315,311.074860 
	C72.451408,316.675964 89.177986,318.888947 106.035072,318.896606 
	C419.289917,319.038940 732.545166,319.189819 1045.799316,318.714355 
	C1077.631470,318.666046 1109.168457,297.733612 1119.974487,260.380096 
	C1120.521240,258.490234 1120.849976,256.537292 1121.597412,254.431961 
	C1121.943115,279.550049 1121.993530,304.849854 1121.996094,330.149689 
	C1122.005859,426.026764 1122.000977,521.903809 1121.994873,617.780884 
	C1121.994751,619.443481 1121.908691,621.106018 1121.865845,623.215698 
	C1118.568726,611.413269 1113.297119,600.225769 1104.432251,590.928345 
	C1090.091187,575.887512 1072.035522,567.637146 1052.037720,564.246887 
	C1037.380737,561.762146 1022.359497,560.314575 1007.499268,560.304016 
	C699.196167,560.085693 390.892761,560.137268 82.589455,560.142395 
	C43.730465,560.143005 11.867294,585.151611 2.677269,622.804688 
	C2.642766,622.946045 2.459947,623.051270 2.006927,623.033203 
z"/>
</svg>